<svg xmlns="http://www.w3.org/2000/svg" version="1.1" xmlns:xlink="http://www.w3.org/1999/xlink" xmlns:svgjs="http://svgjs.dev/svgjs" width="100%" height="100%" viewBox="0 0 1000 600"><rect width="1000" height="600" x="0" y="0" fill="transparent"/><g><rect width="333.3333333333333" height="333.3333333333333" rx="13.333333333333334" ry="13.333333333333334" y="152.07455324527962" fill="#4b6ef8" transform="matrix(0.9626319545219137,0,0,0.9626319545219137,0,-6.830479155086962)" x="129.85229492187497"/><path d="M368.2309266567921 276.8001347125231L368.2309266567921 294.14788322764025Q368.2309266567921 303.4615115041954 365.90995858787426 310.7814877215519Q363.6187465198399 318.1014639389084 359.6909544032096 323.69559210501825Q355.76316228657936 329.2897202711281 350.64513013460646 333.2770243895254Q345.5270979826337 337.26432850792287 339.93296981652384 339.82334458390926Q334.338841650414 342.38236065989565 328.62568948077 343.5130886934711Q322.9125373111259 344.67357272793004 317.91352916268727 344.67357272793004L317.91352916268727 344.67357272793004L374.7177348494089 393.7412181849253L332.64274960005093 393.7412181849253L275.9575679168636 344.67357272793004L256.40787533636285 344.67357272793004L256.40787533636285 317.4765879203536L317.91352916268727 317.4765879203536Q323.03156131466017 317.06000390798374 327.256913440126 315.3341558567371Q331.5120215664756 313.6083078054904 334.5768896574825 310.69221971890124Q337.67151374937305 307.74637563142846 339.33784979885263 303.6102915086133Q341.0339418492157 299.47420738579797 341.0339418492157 294.14788322764025L341.0339418492157 294.14788322764025L341.0339418492157 277.00842671870805Q341.0339418492157 274.68745864979013 340.4388218315444 273.49721861444766Q339.87345781475676 272.27722257822154 338.98077778824984 271.7118585614338Q338.0880977617429 271.1464945446461 337.1061497325853 271.0274705411119Q336.09444570254425 270.93820253846116 335.2612776778045 270.93820253846116L335.2612776778045 270.93820253846116L245.51717901297877 270.93820253846116L245.51717901297877 393.7412181849253L218.3201942054023 393.7412181849253L218.3201942054023 257.4289781373236Q218.3201942054023 254.60215805338518 219.36165423632698 252.1026539791659Q220.4031142672517 249.57339390406304 222.2479863220326 247.69876584839858Q224.06310237592993 245.82413779273412 226.59236245103278 244.78267776180942Q229.09186652525207 243.74121773088473 232.00795461184123 243.74121773088473L232.00795461184123 243.74121773088473L335.2612776778045 243.74121773088473Q344.36661394817475 243.74121773088473 350.64513013460646 247.01437782807662Q356.9236463210383 250.3172939261521 360.85143843766855 255.28654607370711Q364.7792305542989 260.2557982212621 366.50507860554546 265.99870639178977Q368.2309266567921 271.77137056320095 368.2309266567921 276.8001347125231L368.2309266567921 276.8001347125231Z " fill="#ffffff" transform="matrix(0.9626319545219137,0,0,0.9626319545219137,0,-6.830479155086962)"/><path d="M710.9663311472021 293.3991205511619L710.9663311472021 293.3991205511619Q710.9663311472021 300.8991205511619 708.3215943050969 309.58333107747774Q705.6768574629917 318.22806791958294 699.7952785156233 325.6885942353724Q693.8742258840443 333.1096468669514 684.3610679893075 338.08333107747774Q674.8873837787811 343.0964889722145 661.2689627261497 343.0964889722145L661.2689627261497 343.0964889722145L596.1768574629917 343.0964889722145L596.1768574629917 308.7938573932672L661.2689627261497 308.7938573932672Q668.6110679893075 308.7938573932672 672.6373837787811 304.2938573932672Q676.6636995682549 299.7938573932672 676.6636995682549 293.12280476168826L676.6636995682549 293.12280476168826Q676.6636995682549 286.057015288004 672.1636995682549 282.03069949853034Q667.6636995682549 278.0043837090566 661.2689627261497 278.0043837090566L661.2689627261497 278.0043837090566L596.1768574629917 278.0043837090566Q588.8347521998338 278.0043837090566 584.8084364103601 282.5043837090566Q580.7821206208864 287.0043837090567 580.7821206208864 293.67543634063554L580.7821206208864 293.67543634063554L580.7821206208864 344.0438573932672Q580.7821206208864 351.26754160379346 585.2821206208864 355.2938573932672Q589.7821206208864 359.32017318274086 596.4531732524654 359.32017318274086L596.4531732524654 359.32017318274086L661.2689627261497 359.32017318274086L661.2689627261497 393.7412258143198L596.1768574629917 393.7412258143198Q588.6768574629917 393.7412258143198 580.0321206208864 391.0964889722145Q571.3479100945707 388.4517521301093 563.9268574629917 382.57017318274086Q556.5058048314128 376.6885942353724 551.4926469366759 367.17543634063554Q546.5189627261497 357.6622784458988 546.5189627261497 344.0438573932672L546.5189627261497 344.0438573932672L546.5189627261497 293.3991205511619Q546.5189627261497 285.8991205511619 549.1242258840443 277.2543837090566Q551.7689627261497 268.57017318274086 557.6900153577286 261.1491205511619Q563.5715943050969 253.72806791958297 573.0847521998338 248.7149100248461Q582.5979100945707 243.7412258143198 596.1768574629917 243.7412258143198L596.1768574629917 243.7412258143198L661.2689627261497 243.7412258143198Q668.7689627261497 243.7412258143198 677.4531732524654 246.34648897221453Q686.0979100945707 248.9912258143198 693.5189627261495 254.91227844589872Q700.9400153577285 260.79385739326716 705.9531732524654 270.307015288004Q710.9663311472021 279.82017318274086 710.9663311472021 293.3991205511619ZM851.0979100945707 243.7412258143198L900.7952785156232 243.7412258143198L835.979489041939 314.51754160379346L908.9663311472021 393.7412258143198L859.3084364103601 393.7412258143198L811.2689627261497 341.4385942353724L763.2689627261495 393.7412258143198L713.4531732524654 393.7412258143198L786.3215943050969 314.2412258143198L721.7821206208864 243.7412258143198L771.1636995682549 243.7412258143198L810.9926469366759 287.1622784458988L851.0979100945707 243.7412258143198Z " fill="#4b6ef8" transform="matrix(0.9626319545219137,0,0,0.9626319545219137,0,-6.830479155086962)"/></g></svg>